<svg viewBox="1 1 176 176" xmlns="http://www.w3.org/2000/svg" xmlns:xlink="http://www.w3.org/1999/xlink"><defs><linearGradient id="c" gradientUnits="userSpaceOnUse" x1="29.34" x2="81.84" y1="75.02" y2="44.35"><stop offset="0" stop-color="#a52714" stop-opacity=".6"/><stop offset=".66" stop-color="#a52714" stop-opacity="0"/></linearGradient><linearGradient id="e" gradientUnits="userSpaceOnUse" x1="110.9" x2="52.54" y1="164.5" y2="130.3"><stop offset="0" stop-color="#055524" stop-opacity=".4"/><stop offset=".33" stop-color="#055524" stop-opacity="0"/></linearGradient><linearGradient id="g" gradientUnits="userSpaceOnUse" x1="121.9" x2="136.6" y1="49.8" y2="114.1"><stop offset="0" stop-color="#ea6100" stop-opacity=".3"/><stop offset=".66" stop-color="#ea6100" stop-opacity="0"/></linearGradient><linearGradient id="a"><stop offset="0" stop-color="#3e2723" stop-opacity=".2"/><stop offset="1" stop-color="#3e2723" stop-opacity="0"/></linearGradient><clipPath id="b"><circle cx="96" cy="96" r="88"/></clipPath><clipPath id="f"><path d="M8 184h83.77l38.88-38.88V116h-69.3L8 24.48z"/></clipPath><clipPath id="h"><path d="m96 56 34.65 60-38.88 68H184V56z"/></clipPath><clipPath id="j"><path d="M21.97 8v40.34L61.36 116 96 56h88V8z"/></clipPath><radialGradient id="i" cx="92.2" cy="55.95" gradientUnits="userSpaceOnUse" r="84.08" xlink:href="#a"/><radialGradient id="k" cx="21.9" cy="48.52" gradientUnits="userSpaceOnUse" r="78.04" xlink:href="#a"/><radialGradient id="l" cx="95.8" cy="96.14" gradientUnits="userSpaceOnUse" r="87.87"><stop offset="0" stop-color="#263238" stop-opacity=".2"/><stop offset="1" stop-color="#263238" stop-opacity="0"/></radialGradient><path id="d" d="M8 184h83.77l38.88-38.88V116h-69.3L8 24.48z"/></defs><g clip-path="url(#b)" transform="translate(-7 -7)"><path d="M21.97 8v108h39.4L96 56h88V8z" fill="#db4437"/><path d="M21.97 8v108h39.4L96 56h88V8z" fill="url(#c)"/><path d="M62.3 115.6 22.48 47.3l-.58 1 39.54 67.8z" fill="#3e2723" fill-opacity=".15"/><use fill="#0f9d58" xlink:href="#d"/><path d="M8 184h83.77l38.88-38.88V116h-69.3L8 24.48z" fill="url(#e)"/><path d="m129.8 117.3-.83-.48-38.4 67.15h1.15l38.1-66.64z" fill="#263238" fill-opacity=".15"/><g clip-path="url(#f)"><path d="m96 56 34.65 60-38.88 68H184V56z" fill="#ffcd40"/><path d="m96 56 34.65 60-38.88 68H184V56z" fill="url(#g)"/></g><path d="m96 56 34.65 60-38.88 68H184V56z" fill="#ffcd40"/><path d="m96 56 34.65 60-38.88 68H184V56z" fill="url(#g)"/><g clip-path="url(#h)"><path d="M21.97 8v108h39.4L96 56h88V8z" fill="#db4437"/><path d="M21.97 8v108h39.4L96 56h88V8z" fill="url(#c)"/></g></g><path clip-path="url(#b)" d="M96 56v20.95L174.4 56z" fill="url(#i)" transform="translate(-7 -7)"/><g clip-path="url(#b)" transform="translate(-7 -7)"><g clip-path="url(#j)"><use fill="#0f9d58" xlink:href="#d"/><path d="M8 184h83.77l38.88-38.88V116h-69.3L8 24.48z" fill="url(#e)"/></g></g><path clip-path="url(#b)" d="m21.97 48.45 57.25 57.24L61.36 116z" fill="url(#k)" transform="translate(-7 -7)"/><path clip-path="url(#b)" d="m91.83 183.9 20.96-78.2 17.86 10.3z" fill="url(#l)" transform="translate(-7 -7)"/><g clip-path="url(#b)" transform="translate(-7 -7)"><circle cx="96" cy="96" fill="#f1f1f1" r="40"/><circle cx="96" cy="96" fill="#4285f4" r="32"/><path d="M96 55c-22.1 0-40 17.9-40 40v1c0-22.1 17.9-40 40-40h88v-1z" fill="#3e2723" fill-opacity=".2"/><path d="M130.6 116c-6.92 11.94-19.8 20-34.6 20s-27.7-8.06-34.6-20h-.04L8 24.48v1L61.4 117c6.92 11.94 19.8 20 34.6 20s27.68-8.05 34.6-20h.05v-1h-.06z" fill="#fff" fill-opacity=".1"/><path d="M97 56c-.17 0-.33.02-.5.03C118.36 56.3 136 74.08 136 96s-17.64 39.7-39.5 39.97c.17 0 .33.03.5.03 22.1 0 40-17.9 40-40s-17.9-40-40-40z" fill="#3e2723" opacity=".1"/><path d="M131 117.3c3.4-5.88 5.37-12.68 5.37-19.96a39.87 39.87 0 0 0-1.87-12.09c.95 3.42 1.5 7 1.5 10.73 0 7.28-1.97 14.08-5.37 19.96l.02.04-38.88 68h1.16z" fill="#fff" fill-opacity=".2"/><path d="M96 9c48.43 0 87.72 39.13 88 87.5 0-.17.01-.33.01-.5 0-48.6-39.4-88-88-88S8 47.4 8 96c0 .17.01.33.01.5C8.28 48.13 47.57 9 96 9z" fill="#fff" fill-opacity=".2"/><path d="M96 183c48.43 0 87.72-39.13 88-87.5 0 .17.01.33.01.5 0 48.6-39.4 88-88 88S8 144.6 8 96c0-.17.01-.33.01-.5.27 48.37 39.56 87.5 88 87.5z" fill="#3e2723" fill-opacity=".15"/></g></svg>